<svg width="20px" height="20px" viewBox="0 0 30 30" version="1.1" xmlns="http://www.w3.org/2000/svg">
    <g id="Page-1" stroke="none" strokeWidth="1" fill="none" fillRule="evenodd">
        <g id="Desktop-HD-Copy" transform="translate(-1266.000000, -55.000000)" fill="#737373">
            <g id="Head">
            <path d="M1278,85 C1279.65,85 1281,83.6153846 1281,81.9230769 L1275,81.9230769 C1275,83.6153846 1276.335,85 1278,85 L1278,85 Z M1287,75.7692308 L1287,68.0769231 C1287,63.3538462 1284.54,59.4 1280.25,58.3538462 L1280.25,57.3076923 C1280.25,56.0307692 1279.245,55 1278,55 C1276.755,55 1275.75,56.0307692 1275.75,57.3076923 L1275.75,58.3538462 C1271.445,59.4 1269,63.3384615 1269,68.0769231 L1269,75.7692308 L1266,78.8461538 L1266,80.3846154 L1290,80.3846154 L1290,78.8461538 L1287,75.7692308 L1287,75.7692308 Z" id="Shape"></path>
            </g>
        </g>
    </g>
</svg>